<svg width="10" height="10" viewBox="0 0 10 10" fill="none" xmlns="http://www.w3.org/2000/svg">
<path d="M9.24213 9.24256C9.50248 8.98221 9.50248 8.5601 9.24213 8.29975L5.94275 5.00037L9.24304 1.70009C9.50339 1.43974 9.50339 1.01763 9.24304 0.757276C8.98269 0.496926 8.56058 0.496926 8.30023 0.757275L4.99994 4.05756L1.69966 0.757274C1.43931 0.496924 1.0172 0.496924 0.756847 0.757274C0.496497 1.01762 0.496497 1.43973 0.756846 1.70008L4.05713 5.00037L0.757752 8.29975C0.497402 8.5601 0.497403 8.98221 0.757752 9.24256C1.0181 9.50291 1.44021 9.50291 1.70056 9.24256L4.99994 5.94318L8.29932 9.24256C8.55967 9.50291 8.98178 9.50291 9.24213 9.24256Z" fill="#191D23"/>
</svg>
