<svg width="24" height="25" viewBox="0 0 24 25" fill="none" xmlns="http://www.w3.org/2000/svg">
<g id="Social icon" clip-path="url(#clip0_1_1337)">
<path id="Vector" d="M24 12.8271C24 6.19973 18.6274 0.827148 12 0.827148C5.37258 0.827148 0 6.19973 0 12.8271C0 18.8166 4.3882 23.7811 10.125 24.6814V16.2959H7.07812V12.8271H10.125V10.1834C10.125 7.1759 11.9166 5.51465 14.6576 5.51465C15.9701 5.51465 17.3438 5.74902 17.3438 5.74902V8.70215H15.8306C14.34 8.70215 13.875 9.62723 13.875 10.5771V12.8271H17.2031L16.6711 16.2959H13.875V24.6814C19.6118 23.7811 24 18.8166 24 12.8271Z" fill="#98A2B3"/>
</g>
<defs>
<clipPath id="clip0_1_1337">
<rect width="24" height="24" fill="white" transform="translate(0 0.827148)"/>
</clipPath>
</defs>
</svg>
