<svg width="24" height="25" viewBox="0 0 24 25" fill="none" xmlns="http://www.w3.org/2000/svg">
<g id="Social icon" clip-path="url(#clip0_1_1339)">
<path id="Icon" fill-rule="evenodd" clip-rule="evenodd" d="M12 0.827148C5.3724 0.827148 0 6.20795 0 12.8475C0 18.1575 3.438 22.6635 8.2068 24.2523C8.8068 24.3627 9.0252 23.9919 9.0252 23.6727C9.0252 23.3883 9.0156 22.6311 9.0096 21.6291C5.6712 22.3551 4.9668 20.0175 4.9668 20.0175C4.422 18.6279 3.6348 18.2583 3.6348 18.2583C2.5452 17.5143 3.7176 17.5287 3.7176 17.5287C4.9212 17.6127 5.5548 18.7671 5.5548 18.7671C6.6252 20.6031 8.364 20.0727 9.0468 19.7655C9.1572 18.9891 9.4668 18.4599 9.81 18.1599C7.146 17.8563 4.344 16.8243 4.344 12.2187C4.344 10.9071 4.812 9.83315 5.5788 8.99315C5.4552 8.68955 5.0436 7.46675 5.6964 5.81315C5.6964 5.81315 6.7044 5.48915 8.9964 7.04435C9.97532 6.77737 10.9853 6.64138 12 6.63995C13.02 6.64475 14.046 6.77795 15.0048 7.04435C17.2956 5.48915 18.3012 5.81195 18.3012 5.81195C18.9564 7.46675 18.5436 8.68955 18.4212 8.99315C19.1892 9.83315 19.6548 10.9071 19.6548 12.2187C19.6548 16.8363 16.848 17.8527 14.1756 18.1503C14.6064 18.5211 14.9892 19.2543 14.9892 20.3763C14.9892 21.9819 14.9748 23.2791 14.9748 23.6727C14.9748 23.9943 15.1908 24.3687 15.8004 24.2511C18.19 23.4497 20.2672 21.9175 21.7386 19.8712C23.2099 17.8249 24.001 15.3679 24 12.8475C24 6.20795 18.6264 0.827148 12 0.827148Z" fill="#98A2B3"/>
</g>
<defs>
<clipPath id="clip0_1_1339">
<rect width="24" height="24" fill="white" transform="translate(0 0.827148)"/>
</clipPath>
</defs>
</svg>
