<svg width="24" height="25" viewBox="0 0 24 25" fill="none" xmlns="http://www.w3.org/2000/svg">
<g id="Social icon" clip-path="url(#clip0_1_1334)">
<g id="Group">
<path id="Vector" d="M22.2234 0.827148H1.77187C0.792187 0.827148 0 1.60059 0 2.55684V23.0928C0 24.049 0.792187 24.8271 1.77187 24.8271H22.2234C23.2031 24.8271 24 24.049 24 23.0975V2.55684C24 1.60059 23.2031 0.827148 22.2234 0.827148ZM7.12031 21.2787H3.55781V9.82246H7.12031V21.2787ZM5.33906 8.26152C4.19531 8.26152 3.27188 7.33809 3.27188 6.19902C3.27188 5.05996 4.19531 4.13652 5.33906 4.13652C6.47813 4.13652 7.40156 5.05996 7.40156 6.19902C7.40156 7.3334 6.47813 8.26152 5.33906 8.26152ZM20.4516 21.2787H16.8937V15.71C16.8937 14.3834 16.8703 12.6725 15.0422 12.6725C13.1906 12.6725 12.9094 14.1209 12.9094 15.6162V21.2787H9.35625V9.82246H12.7687V11.3881H12.8156C13.2891 10.4881 14.4516 9.53652 16.1813 9.53652C19.7859 9.53652 20.4516 11.9084 20.4516 14.9928V21.2787Z" fill="#98A2B3"/>
</g>
</g>
<defs>
<clipPath id="clip0_1_1334">
<rect width="24" height="24" fill="white" transform="translate(0 0.827148)"/>
</clipPath>
</defs>
</svg>
