<svg width="52" height="34" viewBox="0 0 52 34" fill="none" xmlns="http://www.w3.org/2000/svg">
<path fill-rule="evenodd" clip-rule="evenodd" d="M16.5852 17.1663C16.6721 17.3756 16.8432 17.5369 17.054 17.6086L25.6465 20.5275C25.7541 20.5641 25.8666 20.5755 25.9761 20.5624C26.0802 20.55 26.1816 20.5156 26.2734 20.4599L33.7343 15.9319C33.9339 15.8107 34.0669 15.602 34.0953 15.3656C34.1236 15.1292 34.0442 14.8911 33.8798 14.7196L23.7084 4.11503C23.5347 3.934 23.2875 3.84869 23.0438 3.88663C22.8006 3.92444 22.5918 4.08047 22.4834 4.30535L16.6015 16.5189C16.5043 16.7208 16.4983 16.9571 16.5852 17.1663Z" fill="#FFCC02"/>
<path fill-rule="evenodd" clip-rule="evenodd" d="M26.4553 22.8198C26.4157 22.5264 26.2173 22.2791 25.943 22.1814L3.28923 14.1085C2.97505 13.9965 2.6286 14.1041 2.43235 14.3748C2.23626 14.6454 2.23547 15.0169 2.43044 15.2935L13.6374 31.1948C13.8068 31.4351 14.0842 31.5505 14.3521 31.5186C14.4673 31.5049 14.5807 31.4639 14.683 31.394L26.1298 23.5655C26.3688 23.402 26.4948 23.1132 26.4553 22.8198Z" fill="#EFAE07"/>
<path fill-rule="evenodd" clip-rule="evenodd" d="M47.893 8.75648C47.6363 8.53667 47.2722 8.51047 46.9933 8.69173L14.0452 30.0974C13.7469 30.2912 13.6218 30.6709 13.7435 31.0139C13.8652 31.3569 14.2011 31.5701 14.5538 31.5299L40.1698 28.6022L40.1735 28.6017C40.4465 28.5692 40.6797 28.3909 40.7828 28.131L48.1149 9.65266C48.2394 9.33896 48.1496 8.97624 47.893 8.75648Z" fill="#FFCC02"/>
</svg>
