<svg width="50" height="42" viewBox="0 0 50 42" fill="none" xmlns="http://www.w3.org/2000/svg">
<path d="M33.1319 18.4609C32.5906 17.9392 31.9317 17.5392 31.2041 17.2907C30.4765 17.0422 29.699 16.9516 28.9292 17.0256C28.1594 17.0996 27.4172 17.3362 26.7576 17.718C26.098 18.0998 25.538 18.6169 25.1192 19.2309C24.7005 18.6167 24.1406 18.0995 23.481 17.7176C22.8214 17.3357 22.0792 17.099 21.3093 17.025C20.5395 16.951 19.7619 17.0417 19.0343 17.2903C18.3067 17.5389 17.6478 17.939 17.1065 18.4609C16.1299 19.4035 15.5831 20.6695 15.5831 21.9879C15.5831 23.3063 16.1299 24.5722 17.1065 25.5149L25.1192 33.1999L33.1341 25.5159C34.11 24.5726 34.6561 23.3064 34.6557 21.988C34.6553 20.6696 34.1084 19.4037 33.1319 18.4609Z" fill="#D4D4D8" stroke="#161616" stroke-width="2" stroke-miterlimit="10" stroke-linecap="round" stroke-linejoin="round"/>
<path d="M44.1921 41H6.04639C4.9223 41 3.84424 40.5786 3.04939 39.8284C2.25453 39.0783 1.80798 38.0609 1.80798 37V1H18.7616L24.0596 9H48.4305V37C48.4305 38.0609 47.984 39.0783 47.1891 39.8284C46.3942 40.5786 45.3162 41 44.1921 41Z" stroke="#161616" stroke-width="2" stroke-miterlimit="10" stroke-linecap="round" stroke-linejoin="round"/>
</svg>
