<svg width="24" height="25" viewBox="0 0 24 25" fill="none" xmlns="http://www.w3.org/2000/svg">
<g id="Social icon">
<path id="Vector" d="M7.55016 22.5771C16.6045 22.5771 21.5583 15.0739 21.5583 8.56901C21.5583 8.35807 21.5536 8.14245 21.5442 7.93151C22.5079 7.23461 23.3395 6.3714 24 5.38245C23.1025 5.78175 22.1496 6.04253 21.1739 6.15588C22.2013 5.54006 22.9705 4.57262 23.3391 3.43292C22.3726 4.00571 21.3156 4.40976 20.2134 4.62776C19.4708 3.83871 18.489 3.31626 17.4197 3.1412C16.3504 2.96613 15.2532 3.1482 14.2977 3.65924C13.3423 4.17029 12.5818 4.98185 12.1338 5.96846C11.6859 6.95507 11.5754 8.06176 11.8195 9.11745C9.86249 9.01924 7.94794 8.51085 6.19998 7.62525C4.45203 6.73964 2.90969 5.49659 1.67297 3.97667C1.0444 5.06039 0.852057 6.34279 1.13503 7.56324C1.418 8.78369 2.15506 9.8506 3.19641 10.5471C2.41463 10.5223 1.64998 10.3118 0.965625 9.93307V9.99401C0.964925 11.1313 1.3581 12.2337 2.07831 13.1139C2.79852 13.9941 3.80132 14.5977 4.91625 14.8221C4.19206 15.0203 3.43198 15.0491 2.69484 14.9065C3.00945 15.8846 3.62157 16.74 4.44577 17.3535C5.26997 17.9669 6.26512 18.3077 7.29234 18.3284C5.54842 19.6983 3.39417 20.4413 1.17656 20.4378C0.783287 20.4372 0.390399 20.4131 0 20.3656C2.25286 21.8109 4.87353 22.5785 7.55016 22.5771Z" fill="#98A2B3"/>
</g>
</svg>
